<svg width="53" height="87" viewBox="0 0 53 87" fill="none" xmlns="http://www.w3.org/2000/svg">
<g opacity="0.3">
<path d="M3.99667 49.9862C3.99667 51.0913 3.09854 51.9723 2.00582 51.9723C0.898129 51.9873 0 51.0913 0 49.9862C0 48.8811 0.898129 48 1.99085 48C3.09854 48 3.99667 48.896 3.99667 49.9862Z" fill="#404040"/>
<path d="M16.1516 49.9862C16.1516 51.0913 15.2535 51.9723 14.1608 51.9723C13.0531 51.9723 12.1699 51.0763 12.1699 49.9862C12.1699 48.896 13.0531 48 14.1608 48C15.2535 48 16.1516 48.896 16.1516 49.9862Z" fill="#404040"/>
<path d="M28.3206 49.9862C28.3206 51.0913 27.4224 51.9723 26.3297 51.9723C25.222 51.9723 24.3389 51.0763 24.3389 49.9862C24.3389 48.896 25.222 48 26.3148 48C27.4224 48 28.3206 48.896 28.3206 49.9862Z" fill="#404040"/>
<path d="M40.4758 49.9862C40.4758 51.0913 39.5777 51.9723 38.485 51.9723C37.3773 51.9723 36.4941 51.0763 36.4941 49.9862C36.4941 48.896 37.3773 48 38.485 48C39.5777 48 40.4758 48.896 40.4758 49.9862Z" fill="#404040"/>
<path d="M52.6458 49.9862C52.6458 51.0913 51.7476 51.9723 50.6549 51.9723C49.5472 51.9723 48.6641 51.0763 48.6641 49.9862C48.6641 48.896 49.5472 48 50.64 48C51.7476 48 52.6458 48.896 52.6458 49.9862Z" fill="#404040"/>
<path d="M3.99667 61.5001C3.99667 62.6052 3.09854 63.4863 2.00582 63.4863C0.898129 63.5012 0 62.6052 0 61.5001C0 60.395 0.898129 59.5139 1.99085 59.5139C3.09854 59.5139 3.99667 60.4099 3.99667 61.5001Z" fill="#404040"/>
<path d="M16.1516 61.5001C16.1516 62.6052 15.2535 63.4863 14.1608 63.4863C13.0531 63.4863 12.1699 62.5902 12.1699 61.5001C12.1699 60.395 13.0681 59.5139 14.1608 59.5139C15.2535 59.5139 16.1516 60.4099 16.1516 61.5001Z" fill="#404040"/>
<path d="M28.3206 61.5001C28.3206 62.6052 27.4224 63.4863 26.3297 63.4863C25.222 63.4863 24.3389 62.5902 24.3389 61.5001C24.3389 60.395 25.237 59.5139 26.3297 59.5139C27.4224 59.5139 28.3206 60.4099 28.3206 61.5001Z" fill="#404040"/>
<path d="M40.4758 61.5001C40.4758 62.6052 39.5777 63.4863 38.485 63.4863C37.3773 63.4863 36.4941 62.5902 36.4941 61.5001C36.4941 60.395 37.3923 59.5139 38.485 59.5139C39.5777 59.5139 40.4758 60.4099 40.4758 61.5001Z" fill="#404040"/>
<path d="M52.6458 61.5001C52.6458 62.6052 51.7476 63.4863 50.6549 63.4863C49.5472 63.4863 48.6641 62.5902 48.6641 61.5001C48.6641 60.395 49.5622 59.5139 50.6549 59.5139C51.7476 59.5139 52.6458 60.4099 52.6458 61.5001Z" fill="#404040"/>
<path d="M3.99667 73.0138C3.99667 74.1188 3.09854 74.9999 2.00582 74.9999C0.898129 74.9999 0 74.1188 0 73.0138C0 71.9087 0.898129 71.0276 1.99085 71.0276C3.09854 71.0276 3.99667 71.9087 3.99667 73.0138Z" fill="#404040"/>
<path d="M3.99667 84.9862C3.99667 86.0913 3.09854 86.9723 2.00582 86.9723C0.898129 86.9723 0 86.0913 0 84.9862C0 83.8811 0.898129 83 1.99085 83C3.09854 83 3.99667 83.8811 3.99667 84.9862Z" fill="#404040"/>
<path d="M16.1516 73.0138C16.1516 74.1188 15.2535 74.9999 14.1608 74.9999C13.0531 74.9999 12.1699 74.1039 12.1699 73.0138C12.1699 71.9087 13.0681 71.0276 14.1608 71.0276C15.2535 71.0276 16.1516 71.9087 16.1516 73.0138Z" fill="#404040"/>
<path d="M16.1516 84.9862C16.1516 86.0913 15.2535 86.9723 14.1608 86.9723C13.0531 86.9723 12.1699 86.0763 12.1699 84.9862C12.1699 83.8811 13.0681 83 14.1608 83C15.2535 83 16.1516 83.8811 16.1516 84.9862Z" fill="#404040"/>
<path d="M28.3206 73.0138C28.3206 74.1188 27.4224 74.9999 26.3297 74.9999C25.222 74.9999 24.3389 74.1039 24.3389 73.0138C24.3389 71.9087 25.237 71.0276 26.3297 71.0276C27.4224 71.0276 28.3206 71.9087 28.3206 73.0138Z" fill="#404040"/>
<path d="M28.3206 84.9862C28.3206 86.0913 27.4224 86.9723 26.3297 86.9723C25.222 86.9723 24.3389 86.0763 24.3389 84.9862C24.3389 83.8811 25.237 83 26.3297 83C27.4224 83 28.3206 83.8811 28.3206 84.9862Z" fill="#404040"/>
<path d="M40.4758 73.0138C40.4758 74.1188 39.5777 74.9999 38.485 74.9999C37.3773 74.9999 36.4941 74.1039 36.4941 73.0138C36.4941 71.9087 37.3923 71.0276 38.485 71.0276C39.5777 71.0276 40.4758 71.9087 40.4758 73.0138Z" fill="#404040"/>
<path d="M40.4758 84.9862C40.4758 86.0913 39.5777 86.9723 38.485 86.9723C37.3773 86.9723 36.4941 86.0763 36.4941 84.9862C36.4941 83.8811 37.3923 83 38.485 83C39.5777 83 40.4758 83.8811 40.4758 84.9862Z" fill="#404040"/>
<path d="M52.6458 73.0138C52.6458 74.1188 51.7476 74.9999 50.6549 74.9999C49.5472 74.9999 48.6641 74.1039 48.6641 73.0138C48.6641 71.9087 49.5622 71.0276 50.6549 71.0276C51.7476 71.0276 52.6458 71.9087 52.6458 73.0138Z" fill="#404040"/>
<path d="M52.6458 84.9862C52.6458 86.0913 51.7476 86.9723 50.6549 86.9723C49.5472 86.9723 48.6641 86.0763 48.6641 84.9862C48.6641 83.8811 49.5622 83 50.6549 83C51.7476 83 52.6458 83.8811 52.6458 84.9862Z" fill="#404040"/>
</g>
<g opacity="0.3">
<path d="M3.99667 1.98617C3.99667 3.09126 3.09854 3.97235 2.00582 3.97235C0.898129 3.98728 0 3.09126 0 1.98617C0 0.881084 0.898129 0 1.99085 0C3.09854 0 3.99667 0.896018 3.99667 1.98617Z" fill="#404040"/>
<path d="M16.1516 1.98617C16.1516 3.09126 15.2535 3.97235 14.1608 3.97235C13.0531 3.97235 12.1699 3.07633 12.1699 1.98617C12.1699 0.896018 13.0531 0 14.1608 0C15.2535 0 16.1516 0.896018 16.1516 1.98617Z" fill="#404040"/>
<path d="M28.3206 1.98617C28.3206 3.09126 27.4224 3.97235 26.3297 3.97235C25.222 3.97235 24.3389 3.07633 24.3389 1.98617C24.3389 0.896018 25.222 0 26.3148 0C27.4224 0 28.3206 0.896018 28.3206 1.98617Z" fill="#404040"/>
<path d="M40.4758 1.98617C40.4758 3.09126 39.5777 3.97235 38.485 3.97235C37.3773 3.97235 36.4941 3.07633 36.4941 1.98617C36.4941 0.896018 37.3773 0 38.485 0C39.5777 0 40.4758 0.896018 40.4758 1.98617Z" fill="#404040"/>
<path d="M52.6458 1.98617C52.6458 3.09126 51.7476 3.97235 50.6549 3.97235C49.5472 3.97235 48.6641 3.07633 48.6641 1.98617C48.6641 0.896018 49.5472 0 50.64 0C51.7476 0 52.6458 0.896018 52.6458 1.98617Z" fill="#404040"/>
<path d="M3.99667 13.5001C3.99667 14.6052 3.09854 15.4863 2.00582 15.4863C0.898129 15.5012 0 14.6052 0 13.5001C0 12.395 0.898129 11.5139 1.99085 11.5139C3.09854 11.5139 3.99667 12.4099 3.99667 13.5001Z" fill="#404040"/>
<path d="M16.1516 13.5001C16.1516 14.6052 15.2535 15.4863 14.1608 15.4863C13.0531 15.4863 12.1699 14.5902 12.1699 13.5001C12.1699 12.395 13.0681 11.5139 14.1608 11.5139C15.2535 11.5139 16.1516 12.4099 16.1516 13.5001Z" fill="#404040"/>
<path d="M28.3206 13.5001C28.3206 14.6052 27.4224 15.4863 26.3297 15.4863C25.222 15.4863 24.3389 14.5902 24.3389 13.5001C24.3389 12.395 25.237 11.5139 26.3297 11.5139C27.4224 11.5139 28.3206 12.4099 28.3206 13.5001Z" fill="#404040"/>
<path d="M40.4758 13.5001C40.4758 14.6052 39.5777 15.4863 38.485 15.4863C37.3773 15.4863 36.4941 14.5902 36.4941 13.5001C36.4941 12.395 37.3923 11.5139 38.485 11.5139C39.5777 11.5139 40.4758 12.4099 40.4758 13.5001Z" fill="#404040"/>
<path d="M52.6458 13.5001C52.6458 14.6052 51.7476 15.4863 50.6549 15.4863C49.5472 15.4863 48.6641 14.5902 48.6641 13.5001C48.6641 12.395 49.5622 11.5139 50.6549 11.5139C51.7476 11.5139 52.6458 12.4099 52.6458 13.5001Z" fill="#404040"/>
<path d="M3.99667 25.0138C3.99667 26.1188 3.09854 26.9999 2.00582 26.9999C0.898129 26.9999 0 26.1188 0 25.0138C0 23.9087 0.898129 23.0276 1.99085 23.0276C3.09854 23.0276 3.99667 23.9087 3.99667 25.0138Z" fill="#404040"/>
<path d="M3.99667 36.9862C3.99667 38.0913 3.09854 38.9723 2.00582 38.9723C0.898129 38.9723 0 38.0913 0 36.9862C0 35.8811 0.898129 35 1.99085 35C3.09854 35 3.99667 35.8811 3.99667 36.9862Z" fill="#404040"/>
<path d="M16.1516 25.0138C16.1516 26.1188 15.2535 26.9999 14.1608 26.9999C13.0531 26.9999 12.1699 26.1039 12.1699 25.0138C12.1699 23.9087 13.0681 23.0276 14.1608 23.0276C15.2535 23.0276 16.1516 23.9087 16.1516 25.0138Z" fill="#404040"/>
<path d="M16.1516 36.9862C16.1516 38.0913 15.2535 38.9723 14.1608 38.9723C13.0531 38.9723 12.1699 38.0763 12.1699 36.9862C12.1699 35.8811 13.0681 35 14.1608 35C15.2535 35 16.1516 35.8811 16.1516 36.9862Z" fill="#404040"/>
<path d="M28.3206 25.0138C28.3206 26.1188 27.4224 26.9999 26.3297 26.9999C25.222 26.9999 24.3389 26.1039 24.3389 25.0138C24.3389 23.9087 25.237 23.0276 26.3297 23.0276C27.4224 23.0276 28.3206 23.9087 28.3206 25.0138Z" fill="#404040"/>
<path d="M28.3206 36.9862C28.3206 38.0913 27.4224 38.9723 26.3297 38.9723C25.222 38.9723 24.3389 38.0763 24.3389 36.9862C24.3389 35.8811 25.237 35 26.3297 35C27.4224 35 28.3206 35.8811 28.3206 36.9862Z" fill="#404040"/>
<path d="M40.4758 25.0138C40.4758 26.1188 39.5777 26.9999 38.485 26.9999C37.3773 26.9999 36.4941 26.1039 36.4941 25.0138C36.4941 23.9087 37.3923 23.0276 38.485 23.0276C39.5777 23.0276 40.4758 23.9087 40.4758 25.0138Z" fill="#404040"/>
<path d="M40.4758 36.9862C40.4758 38.0913 39.5777 38.9723 38.485 38.9723C37.3773 38.9723 36.4941 38.0763 36.4941 36.9862C36.4941 35.8811 37.3923 35 38.485 35C39.5777 35 40.4758 35.8811 40.4758 36.9862Z" fill="#404040"/>
<path d="M52.6458 25.0138C52.6458 26.1188 51.7476 26.9999 50.6549 26.9999C49.5472 26.9999 48.6641 26.1039 48.6641 25.0138C48.6641 23.9087 49.5622 23.0276 50.6549 23.0276C51.7476 23.0276 52.6458 23.9087 52.6458 25.0138Z" fill="#404040"/>
<path d="M52.6458 36.9862C52.6458 38.0913 51.7476 38.9723 50.6549 38.9723C49.5472 38.9723 48.6641 38.0763 48.6641 36.9862C48.6641 35.8811 49.5622 35 50.6549 35C51.7476 35 52.6458 35.8811 52.6458 36.9862Z" fill="#404040"/>
</g>
</svg>
