<svg width="106" height="106" viewBox="0 0 106 106" fill="none" xmlns="http://www.w3.org/2000/svg">
<g clip-path="url(#clip0_7440_2203)">
<path d="M70.8636 73.821C61.9272 67.5541 56.0008 57.536 54.9312 46.6503C53.8586 35.7434 58.1701 24.5624 65.8953 16.8613C68.845 13.9176 73.6777 9.45849 77.4288 13.758C80.8666 17.6959 77.941 23.2005 75.9224 27.0571C70.6949 37.051 63.0451 45.6831 53.9791 52.3568C43.711 59.9132 31.6351 64.7641 18.9808 66.3368C17.5767 66.5116 17.5888 64.3061 18.9808 64.1374C38.6462 61.7421 57.0372 50.7569 68.7034 34.7762C71.4271 31.0462 73.8826 27.0239 75.7567 22.7938C76.8082 20.4226 77.929 17.1385 75.8772 14.93C73.4638 12.3359 70.3755 15.2976 68.4201 17.0481C61.0203 23.6766 56.5853 33.4144 56.4708 43.3451C56.3382 54.8605 62.1713 66.0385 71.4662 72.7604C72.0899 73.2154 71.5084 74.2729 70.8636 73.821Z" fill="#18A87C"/>
<path d="M71.0809 74.4716C60.8007 68.3854 53.7444 57.4545 52.8284 45.4871C51.9607 34.1343 56.7242 21.3745 65.9589 14.3694C67.86 12.9262 70.0715 11.7331 72.4758 11.4318C74.2927 11.2058 76.9953 11.3896 78.1402 13.0708C79.4538 14.9931 78.6313 18.5694 78.2185 20.6936C77.6852 23.4444 76.712 26.0988 75.4557 28.5965C69.9841 39.4612 59.5533 47.6082 49.3907 53.8359C36.9141 61.4798 22.5875 66.6831 8.00489 68.2137C6.96844 68.3222 6.7274 66.5445 7.76988 66.3879C19.3034 64.6705 30.3941 61.54 40.8821 56.3789C50.8248 51.4798 60.5566 45.008 67.9564 36.6682C71.4002 32.7845 74.365 28.3193 75.9558 23.3419C76.6699 21.1093 77.3809 18.4519 77.2001 16.0898C76.8295 11.3323 71.5479 12.7093 68.791 14.2428C59.5383 19.392 54.4404 31.6908 54.115 41.8263C53.7052 54.6494 60.6802 66.9513 71.578 73.5888C72.1354 73.9292 71.6413 74.803 71.0809 74.4716Z" fill="#18A87C"/>
<path d="M12.0635 71.7958C12.4612 68.5599 12.419 65.4023 12.2683 62.1544C12.6661 62.4617 13.0638 62.769 13.4615 63.0763C9.57477 64.167 5.65494 65.1583 1.7351 66.1495C1.89177 65.565 2.05146 64.9835 2.20813 64.399C5.46512 67.198 8.9993 69.5813 12.7986 71.5849C12.2834 71.8832 11.7712 72.1845 11.256 72.4827C11.1686 70.4972 10.9999 68.5207 10.7227 66.5502C11.3404 66.6316 11.955 66.7099 12.5696 66.7943C11.8285 67.885 11.1566 69.0028 10.5359 70.1718C10.099 70.9943 8.60461 70.681 8.70404 69.6897C8.89686 67.7916 9.46631 66.1556 10.548 64.5738C11.03 63.8687 12.3648 64.0224 12.2985 65.0347C12.19 66.6738 12.7233 73.6728 9.24938 71.1631C6.11893 68.9003 8.26716 65.1312 10.6866 63.459C11.5573 62.8594 12.4702 64.1761 11.7803 64.8961C11.3615 65.333 10.9396 65.7729 10.5208 66.2098C10.087 65.7759 9.65311 65.3421 9.21925 64.9082C10.2678 64.1007 11.2891 63.2722 12.2834 62.3984C13.1421 61.6422 14.2388 62.775 13.5278 63.6428C11.5452 66.0591 8.58955 66.719 5.63686 67.195C5.5525 66.5442 5.46813 65.8934 5.38679 65.2456C7.07403 65.33 8.76128 65.4144 10.4485 65.4987C11.7561 65.565 11.7019 67.3487 10.4485 67.4933C8.76128 67.6861 7.13429 67.6801 5.45307 67.4812C5.61577 66.8606 5.77847 66.2399 5.94418 65.6223C6.64318 66.1284 7.31507 66.4568 8.14966 66.6768C7.83028 67.2312 7.51091 67.7856 7.19455 68.343C6.22438 67.3366 5.21203 66.6437 3.95262 66.0832C3.03367 65.6765 3.49465 64.1911 4.44373 64.2303C5.44704 64.2695 6.44734 64.3177 7.45065 64.3629C7.45065 65.0016 7.45065 65.6403 7.45065 66.2851C6.16111 66.1706 4.88362 66.1405 3.59107 66.1797C2.36179 66.2158 2.37083 64.3267 3.59107 64.2755C6.53472 64.158 9.34278 63.5674 12.0966 62.525C13.112 62.1423 13.82 63.8446 12.8197 64.3026C11.262 65.0167 9.69228 65.5138 7.99298 65.7669C7.91163 65.1251 7.82727 64.4864 7.74592 63.8446C9.57176 63.6518 12.1749 62.8202 13.7839 63.9772C14.4347 64.4472 14.4859 65.318 13.7839 65.7789C12.7414 66.4599 11.6808 66.5924 10.4877 66.2731C9.18912 65.9266 9.7194 63.9079 11.015 64.2574C11.6627 64.4954 12.2442 64.402 12.7625 63.9802C12.6902 64.5225 12.6148 65.0679 12.5425 65.6102C11.729 64.9052 8.70404 65.7006 7.74592 65.797C6.65523 65.9055 6.39612 64.0375 7.49886 63.8748C9.02943 63.6518 10.4515 63.2601 11.8616 62.6153C12.1026 63.2059 12.3437 63.8024 12.5847 64.393C9.67722 65.4807 6.68837 66.0591 3.58806 66.1706C3.58805 65.5379 3.58806 64.8992 3.58806 64.2664C4.88061 64.2333 6.16111 64.2725 7.45065 64.3568C8.67391 64.4352 8.69801 66.3032 7.45065 66.2791C6.44734 66.258 5.44704 66.2339 4.44373 66.2068C4.60944 65.5891 4.76913 64.9715 4.93484 64.3538C6.36298 64.9865 7.52598 65.8121 8.60461 66.9329C9.28554 67.6379 8.61365 68.8461 7.64951 68.5991C6.63113 68.3339 5.81462 67.9693 4.96497 67.3547C4.26597 66.8485 4.35033 65.3662 5.45608 65.4957C7.14032 65.6916 8.77032 65.6946 10.4546 65.5048C10.4546 66.1676 10.4546 66.8305 10.4546 67.4993C8.77032 67.412 7.08006 67.3246 5.39583 67.2372C4.3413 67.183 3.9707 65.4445 5.14575 65.2878C7.77605 64.9353 10.4696 64.5195 12.2985 62.4075C12.7143 62.8232 13.127 63.236 13.5428 63.6518C12.5606 64.5316 11.5633 65.3903 10.5389 66.2218C9.63805 66.948 8.3937 65.788 9.23733 64.9202C9.65914 64.4864 10.087 64.0525 10.5088 63.6187C10.8734 64.0977 11.2379 64.5768 11.6025 65.0558C10.792 65.6012 10.1201 66.261 9.89114 67.2432C9.82786 67.5114 9.66818 69.9127 10.569 69.6867C10.331 69.9247 10.096 70.1598 9.85799 70.3978C10.4425 68.8793 10.2919 66.6617 10.4365 65.0468C11.018 65.2004 11.6055 65.3541 12.187 65.5078C11.3132 66.7913 10.8101 68.1441 10.6715 69.6988C10.0599 69.5391 9.45124 69.3764 8.83962 69.2167C9.44221 68.0417 10.102 66.9178 10.8251 65.8151C11.256 65.1613 12.5275 65.1131 12.6721 66.0591C13.0035 68.1983 13.2235 70.3405 13.3259 72.5038C13.362 73.3113 12.4401 73.7452 11.7833 73.4017C7.81522 71.3197 4.13641 68.81 0.731789 65.8995C0.117148 65.3752 0.481717 64.3357 1.20482 64.1489C5.11864 63.1517 9.03847 62.1544 12.9764 61.2595C13.588 61.1179 14.1454 61.5548 14.1695 62.1815C14.284 65.4535 13.9315 68.7708 13.4585 72.0037C13.347 72.766 11.9671 72.5972 12.0635 71.7958Z" fill="#18A87C"/>
</g>
<defs>
<clipPath id="clip0_7440_2203">
<rect width="57.216" height="92.1259" fill="white" transform="matrix(-0.707107 -0.707107 -0.707107 0.707107 105.601 40.458)"/>
</clipPath>
</defs>
</svg>
